<svg width="80" height="80" viewBox="0 0 80 80" fill="none" xmlns="http://www.w3.org/2000/svg">
<g clip-path="url(#clip0_8_207)">
<g filter="url(#filter0_d_8_207)">
<path d="M60.936 32.4844H50.4221V34.5007H60.936V32.4844Z" fill="#1080C2"/>
<path d="M59.4236 34.5007H50.422L49.7019 36.5171H57.4073L59.4236 34.5007Z" fill="white"/>
<path d="M57.1193 36.5171H49.558L48.3337 38.4614H55.1749L57.1193 36.5171Z" fill="#5CB85C"/>
<path d="M19.3846 32.4844H29.8984V34.5007H19.3846V32.4844Z" fill="#1080C2"/>
<path d="M20.8969 34.5007H29.8985L30.6187 36.5171H22.9133L20.8969 34.5007Z" fill="white"/>
<path d="M23.2013 36.5171H30.7626L31.9868 38.4614H25.1456L23.2013 36.5171Z" fill="#5CB85C"/>
<path fill-rule="evenodd" clip-rule="evenodd" d="M36.6317 11.5285L33.1024 15.057L28.0888 15.0661L23.0752 15.0752L23.0661 20.0888L23.057 25.1024L19.5285 28.6317C17.2274 30.9334 16 32.1858 16 32.2323C16 32.2787 17.2273 33.5311 19.5285 35.8328L23.057 39.362L23.0716 47.7243C23.0813 53.23 23.0994 56.2218 23.1245 56.4826C23.1794 57.0519 23.2267 57.4261 23.2726 57.6528C23.2946 57.7617 23.3268 57.9399 23.3442 58.0488C23.3616 58.1577 23.3943 58.3198 23.4168 58.4089C23.4394 58.498 23.472 58.6438 23.4893 58.733C23.5626 59.1102 23.5897 59.204 23.9249 60.2452C24.1335 60.8933 24.1712 60.9953 24.3971 61.5234C24.5671 61.921 25.0654 62.9396 25.2205 63.2067C25.2981 63.3404 25.4298 63.5673 25.5131 63.7108C25.6743 63.9885 26.1494 64.7158 26.1894 64.746C26.2025 64.7559 26.2838 64.8693 26.37 64.9981C26.4562 65.1268 26.553 65.2564 26.585 65.2861C26.6171 65.3158 26.6823 65.3968 26.7299 65.4661C26.7775 65.5355 26.8423 65.6165 26.8739 65.6462C26.9055 65.6759 26.9706 65.7569 27.0185 65.8262C27.0664 65.8955 27.1634 66.0089 27.234 66.0782C27.3046 66.1476 27.4022 66.261 27.451 66.3303C27.5662 66.494 28.6545 67.5823 28.8183 67.6976C28.8876 67.7463 29.001 67.844 29.0703 67.9146C29.1396 67.9851 29.253 68.0821 29.3224 68.13C29.3917 68.178 29.4565 68.2268 29.4664 68.2386C29.4763 68.2504 29.5411 68.299 29.6104 68.3467C29.6797 68.3943 29.7607 68.4591 29.7904 68.4907C29.8201 68.5223 29.9012 68.5871 29.9705 68.6347C30.0398 68.6823 30.1046 68.7316 30.1145 68.7443C30.1385 68.7751 31.1906 69.4764 31.4243 69.6174C32.0232 69.9789 33.0898 70.512 33.7691 70.7893C34.2429 70.9828 35.3937 71.3661 35.7495 71.449C35.8931 71.4824 36.0606 71.5237 36.3166 71.5889C36.3909 71.6078 36.5205 71.6407 36.6046 71.662C36.6888 71.6833 36.8468 71.715 36.9557 71.7324C37.0646 71.7498 37.2428 71.782 37.3518 71.804C37.5568 71.8454 37.8673 71.8859 38.486 71.9518C39.508 72.0606 42.203 71.9739 43.0318 71.8056C43.1358 71.7845 43.3059 71.7505 43.4098 71.7301C43.8096 71.6515 43.9276 71.6265 44.067 71.5911C44.336 71.5227 44.4987 71.4826 44.6431 71.449C44.9248 71.3833 45.7851 71.1031 46.3174 70.9035C46.4857 70.8404 46.6841 70.766 46.7584 70.7381C46.9388 70.6704 48.2999 69.9894 48.5497 69.8419C48.6587 69.7776 48.8693 69.6545 49.0178 69.5683C49.2931 69.4087 50.2454 68.786 50.278 68.7442C50.288 68.7316 50.3528 68.6823 50.4221 68.6347C50.4914 68.5871 50.5562 68.5385 50.5661 68.5267C50.576 68.5149 50.6408 68.4663 50.7101 68.4186C50.7794 68.371 50.8605 68.3062 50.8902 68.2746C50.9199 68.2431 51.0009 68.178 51.0702 68.1301C51.1395 68.0821 51.2529 67.9851 51.3222 67.9146C51.3915 67.844 51.505 67.7463 51.5743 67.6976C51.738 67.5823 52.8263 66.494 52.9415 66.3303C52.9903 66.261 53.088 66.1476 53.1586 66.0782C53.2291 66.0089 53.3261 65.8955 53.3741 65.8262C53.422 65.7569 53.487 65.6759 53.5186 65.6462C53.5502 65.6165 53.615 65.5355 53.6626 65.4661C53.7103 65.3968 53.7755 65.3158 53.8075 65.2861C53.8395 65.2564 53.9363 65.1268 54.0226 64.9981C54.1088 64.8693 54.1901 64.7559 54.2032 64.746C54.2431 64.7158 54.7182 63.9885 54.8794 63.7108L55.172 63.2067C55.335 62.9261 55.9247 61.7217 56.0358 61.4424C56.0772 61.3384 56.1431 61.1764 56.1821 61.0824C56.2212 60.9883 56.3497 60.6116 56.4676 60.2452C56.8029 59.204 56.8299 59.1102 56.9032 58.733C56.9205 58.6438 56.9532 58.498 56.9757 58.4089C56.9983 58.3198 57.031 58.1577 57.0484 58.0488C57.0658 57.9399 57.098 57.7617 57.12 57.6528C57.1658 57.4261 57.2132 57.0519 57.268 56.4826C57.2932 56.2218 57.3112 53.23 57.3209 47.7242L57.3356 39.3619L60.8821 35.8148C62.8326 33.864 64.4285 32.2518 64.4285 32.2323C64.4285 32.2127 62.8326 30.6005 60.882 28.6497L57.3355 25.1026L57.3264 20.089L57.3173 15.0752L52.3037 15.0661L47.2901 15.057L43.7608 11.5285C41.8197 9.58781 40.2156 8 40.1963 8C40.1769 8 38.5729 9.58781 36.6317 11.5285ZM39.8993 17.5957C39.9076 23.0951 39.9032 23.6446 39.8508 23.7026C39.8052 23.753 39.7167 23.7699 39.4276 23.7834C39.0589 23.8006 38.7507 23.8422 38.486 23.9104C38.3522 23.9449 38.2068 23.9806 37.8919 24.0565C37.8226 24.0732 37.6625 24.121 37.5361 24.1629C37.4098 24.2047 37.2954 24.2389 37.282 24.2389C37.2569 24.2389 37.0929 23.8954 36.9596 23.5637L36.8077 23.1857C36.766 23.0817 36.6867 22.8913 36.6316 22.7626C36.5766 22.6339 36.4955 22.4394 36.4516 22.3305C36.4077 22.2216 36.3267 22.0272 36.2716 21.8985C36.2165 21.7697 36.1355 21.5753 36.0915 21.4664C36.0476 21.3575 35.9666 21.163 35.9115 21.0343C35.8564 20.9056 35.7772 20.7152 35.7354 20.6112C35.7145 20.5593 35.687 20.4907 35.6595 20.4222C35.6319 20.3537 35.6044 20.2851 35.5835 20.2332C35.5418 20.1292 35.4625 19.9388 35.4074 19.8101C35.3523 19.6814 35.2713 19.4869 35.2274 19.378C35.1835 19.2691 35.1025 19.0747 35.0474 18.9459C34.9923 18.8172 34.913 18.6268 34.8713 18.5229C34.8412 18.4482 34.7975 18.3393 34.7598 18.2453L34.7194 18.1448C34.6447 17.959 34.4925 17.6011 34.359 17.2977C34.3217 17.213 34.2912 17.1199 34.2912 17.0908C34.2912 17.0191 39.7938 11.5205 39.8476 11.5384C39.8801 11.5493 39.8924 12.9803 39.8993 17.5957ZM43.3649 14.3014C44.8699 15.8066 46.1013 17.0619 46.1013 17.0909C46.1013 17.1199 46.0706 17.213 46.0331 17.2977C45.9956 17.3824 45.9291 17.5408 45.8852 17.6497C45.8413 17.7586 45.7603 17.9531 45.7052 18.0818C45.6502 18.2105 45.5691 18.4049 45.5252 18.5139C45.4813 18.6228 45.3955 18.8209 45.3347 18.9541C45.2107 19.2256 45.2248 19.3125 45.411 19.4228C45.4639 19.4541 45.5466 19.5139 45.5947 19.5557C45.7334 19.6762 45.7674 19.6393 45.958 19.162C46.0015 19.0531 46.0822 18.8586 46.1373 18.7299C46.1924 18.6012 46.2734 18.4067 46.3174 18.2978C46.3613 18.1889 46.4421 17.9945 46.4971 17.8657L46.5812 17.6688C46.6111 17.5987 46.6381 17.5353 46.6546 17.4967L46.7123 17.3617H50.6375C53.2185 17.3617 54.5628 17.3739 54.5628 17.3975C54.5628 17.4447 48.7131 23.2944 48.5497 23.4106C48.4804 23.4599 47.8965 24.0269 47.2522 24.6707C46.6078 25.3144 46.0537 25.8627 46.0207 25.8891C45.9597 25.9379 45.7086 25.8033 45.5612 25.6428C45.5315 25.6105 45.4019 25.513 45.2732 25.4263C45.1444 25.3395 45.012 25.2434 44.9789 25.2128C44.9025 25.1421 44.2356 24.7438 43.9859 24.6197L43.9848 24.6191C43.897 24.5755 43.839 24.5466 43.8133 24.5C43.7633 24.409 43.8363 24.2503 44.0516 23.7823L44.0531 23.7791C44.2122 23.4333 44.2025 23.3985 43.9034 23.2479C43.622 23.1062 43.6088 23.1072 43.5464 23.2749C43.384 23.7108 43.1445 24.2389 43.1091 24.2389C43.0949 24.2389 42.9319 24.1883 42.747 24.1266C42.1528 23.9282 41.5857 23.8178 40.9524 23.7771L40.5743 23.7528L40.5652 17.6587C40.5592 13.596 40.5682 11.5646 40.5923 11.5646C40.6122 11.5646 41.8598 12.7962 43.3649 14.3014ZM33.7379 17.4967C33.761 17.5507 33.8048 17.6534 33.8482 17.755L33.8954 17.8657C33.9504 17.9945 34.0313 18.1889 34.0752 18.2978C34.1191 18.4067 34.2001 18.6012 34.2552 18.7299C34.3103 18.8586 34.3913 19.0531 34.4353 19.162C34.4792 19.2709 34.5602 19.4653 34.6153 19.594C34.6704 19.7228 34.7496 19.9132 34.7914 20.0171C34.8332 20.1211 34.9015 20.2912 34.9433 20.3952C34.985 20.4991 35.0643 20.6895 35.1194 20.8183C35.1745 20.947 35.2555 21.1414 35.2994 21.2503C35.3433 21.3593 35.4243 21.5537 35.4794 21.6824C35.5345 21.8111 35.6119 21.9975 35.6513 22.0965C35.7926 22.4511 35.8849 22.6762 35.9835 22.9066C36.0386 23.0354 36.1196 23.2298 36.1636 23.3387C36.2422 23.5338 36.3952 23.8933 36.5279 24.1948C36.6519 24.4767 36.6366 24.5056 36.2647 24.6924C35.9825 24.8342 35.2109 25.3191 35.1554 25.3897C35.1455 25.4023 35.0807 25.4515 35.0114 25.4991C34.942 25.5467 34.861 25.6118 34.8313 25.6437C34.6811 25.805 34.4326 25.9377 34.3719 25.8891C34.339 25.8627 33.4932 25.0228 32.4923 24.0226C31.4915 23.0225 30.6159 22.1638 30.5466 22.1145C30.3832 21.9983 25.8297 17.4446 25.8297 17.3974C25.8297 17.3739 27.1774 17.3617 29.755 17.3617H33.6803L33.7379 17.4967ZM29.6013 22.071C31.9332 24.4037 33.8624 26.3388 33.8884 26.3712C33.9477 26.445 33.8796 26.5922 33.7049 26.7677C33.6406 26.8324 33.5485 26.942 33.5002 27.0114C33.452 27.0807 33.4023 27.1455 33.3897 27.1554C33.3199 27.2103 32.835 27.9808 32.696 28.2576C32.4861 28.6755 32.4691 28.6892 32.2696 28.6012C31.9737 28.4708 31.6085 28.3154 31.4107 28.2356C31.3018 28.1916 31.1074 28.1106 30.9786 28.0555C30.8499 28.0005 30.6555 27.9194 30.5466 27.8755C30.4376 27.8316 30.2432 27.7506 30.1145 27.6955C29.8841 27.5969 29.6589 27.5045 29.3043 27.3633C29.2053 27.3238 29.019 27.2465 28.8903 27.1914C28.7616 27.1363 28.5671 27.0553 28.4582 27.0114C28.3493 26.9674 28.1548 26.8864 28.0261 26.8313C27.8974 26.7762 27.703 26.6952 27.594 26.6513C27.4851 26.6074 27.2907 26.5264 27.162 26.4713C27.0332 26.4162 26.8388 26.3352 26.7299 26.2912C26.621 26.2473 26.4265 26.1663 26.2978 26.1112C26.1691 26.0561 25.9747 25.9752 25.8657 25.9314C25.7568 25.8876 25.5827 25.8131 25.4787 25.7658L25.2896 25.6799V21.7548C25.2896 19.1704 25.3019 17.8297 25.3255 17.8297C25.3453 17.8297 27.2694 19.7383 29.6013 22.071ZM55.1029 21.7548V25.6799L54.9139 25.7658C54.8099 25.8131 54.6357 25.8876 54.5268 25.9314C54.4179 25.9752 54.2234 26.0561 54.0947 26.1112C53.966 26.1663 53.7716 26.2473 53.6626 26.2912C53.5537 26.3352 53.3593 26.4162 53.2306 26.4713C53.1018 26.5264 52.9074 26.6074 52.7985 26.6513C52.6896 26.6952 52.4951 26.7762 52.3664 26.8313C52.2377 26.8864 52.0433 26.9674 51.9343 27.0114C51.8254 27.0553 51.631 27.1363 51.5023 27.1914C51.3735 27.2465 51.1791 27.3275 51.0702 27.3714C50.9613 27.4153 50.7668 27.4964 50.6381 27.5515C50.5094 27.6065 50.315 27.6876 50.206 27.7315C50.0971 27.7754 49.9027 27.8564 49.774 27.9115C49.6452 27.9666 49.4508 28.0476 49.3419 28.0915C49.233 28.1355 49.0385 28.2165 48.9098 28.2716C48.7811 28.3267 48.5867 28.4076 48.4777 28.4515C48.3688 28.4954 48.2092 28.5626 48.123 28.6008C47.9254 28.6884 47.9052 28.6731 47.714 28.2916C47.5642 27.9926 47.262 27.4753 47.2186 27.4434C47.2051 27.4335 47.1234 27.3201 47.037 27.1914C46.9506 27.0627 46.8375 26.9168 46.7857 26.8673C46.5883 26.6786 46.4509 26.4374 46.5034 26.372C46.6291 26.2154 55.0357 17.8297 55.067 17.8297C55.0907 17.8297 55.1029 19.1704 55.1029 21.7548ZM44.541 19.33C44.4603 19.4108 44.5185 20.053 44.616 20.157C44.7807 20.3325 44.8065 20.373 44.878 20.5687C44.9665 20.8108 44.9594 20.8183 44.6397 20.8183C44.2276 20.8183 43.6445 21.2035 43.5653 21.528C43.3388 22.4564 43.7956 23.1227 44.6588 23.1227C45.8653 23.1227 46.5155 21.1056 45.6337 20.0981C45.5903 20.0486 45.5298 19.9657 45.4991 19.914C45.4685 19.8622 45.4011 19.7948 45.3493 19.7641C45.2975 19.7335 45.2147 19.6729 45.1651 19.6296C45.0908 19.5644 44.6218 19.306 44.578 19.306C44.5709 19.306 44.5542 19.3168 44.541 19.33ZM39.8902 27.5154V29.0097L39.8002 29.0204C39.7507 29.0263 39.6697 29.0453 39.6202 29.0627L39.6088 29.0667C39.4746 29.1138 39.395 29.1418 39.3325 29.1202C39.2413 29.0887 39.1865 28.9518 39.0519 28.6151L39.0441 28.5956C38.8619 28.1403 38.8137 28.0223 38.72 27.8035C38.6649 27.6748 38.5839 27.4803 38.54 27.3714C38.4608 27.1749 38.3065 26.8125 38.175 26.5139C38.0996 26.3428 38.1106 26.2912 38.2223 26.2912C38.2631 26.2912 38.4039 26.2575 38.5353 26.2162C38.9574 26.0835 38.9929 26.0752 39.1366 26.0746C39.2144 26.0743 39.3024 26.058 39.3321 26.0384C39.3618 26.0187 39.4995 26.0068 39.6382 26.0119L39.8902 26.0212V27.5154ZM41.2585 26.0703C41.3773 26.0898 41.5393 26.1224 41.6185 26.1428C41.7994 26.1894 42.0207 26.2448 42.1502 26.2759C42.2881 26.3091 42.2958 26.3363 42.2176 26.5139C42.0819 26.8221 41.931 27.1769 41.8607 27.3534C41.7194 27.708 41.6271 27.9332 41.5285 28.1636C41.4734 28.2923 41.3942 28.4826 41.3524 28.5866C41.3465 28.6013 41.3408 28.6156 41.3352 28.6296C41.2087 28.9447 41.1542 29.0806 41.0616 29.1155C40.9912 29.142 40.8989 29.1102 40.7366 29.0542C40.7271 29.0509 40.7174 29.0476 40.7074 29.0442L40.5743 28.9984L40.5649 27.5459C40.5598 26.7469 40.5638 26.0716 40.574 26.0452C40.594 25.9931 40.8439 26.0022 41.2585 26.0703ZM25.2257 26.359C25.5272 26.4917 25.8867 26.6446 26.0818 26.7233C26.1907 26.7672 26.3851 26.8482 26.5139 26.9033C26.6426 26.9584 26.8289 27.0358 26.9279 27.0752C27.2825 27.2165 27.5077 27.3088 27.7381 27.4074C27.8668 27.4625 28.0612 27.5435 28.1701 27.5875C28.2791 27.6314 28.4735 27.7124 28.6022 27.7675C28.8326 27.8661 29.0578 27.9584 29.4124 28.0997C29.5114 28.1391 29.6977 28.2165 29.8264 28.2716C29.9552 28.3267 30.1415 28.404 30.2405 28.4435C30.5951 28.5847 30.8203 28.677 31.0507 28.7757C31.1794 28.8308 31.3738 28.9116 31.4827 28.9553C31.8607 29.107 32.2029 29.2794 32.2029 29.3181C32.2029 29.3396 32.1602 29.4815 32.1082 29.6335C32.0561 29.7855 32.0001 29.9666 31.9838 30.0359C31.9674 30.1052 31.9359 30.2348 31.9137 30.3239C31.8591 30.5429 31.8095 30.8558 31.771 31.2241C31.7534 31.3924 31.7259 31.6112 31.7099 31.7102L31.6808 31.8902L25.5867 31.8993C21.5241 31.9054 19.4926 31.8964 19.4926 31.8722C19.4926 31.8376 25.0204 26.2912 25.0549 26.2912C25.0641 26.2912 25.141 26.3217 25.2257 26.359ZM58.1271 29.0636C59.6522 30.5885 60.8999 31.8524 60.8999 31.8722C60.8999 31.8964 58.8684 31.9054 54.8058 31.8993L48.7118 31.8902L48.6837 31.6742C48.6682 31.5554 48.6406 31.3366 48.6223 31.1881C48.5761 30.814 48.5265 30.515 48.4788 30.3239C48.4566 30.2348 48.4251 30.1052 48.4088 30.0359C48.3924 29.9666 48.3365 29.7855 48.2844 29.6335C48.2323 29.4815 48.1897 29.3396 48.1897 29.3181C48.1897 29.2798 48.5396 29.103 48.8918 28.9634C49.2192 28.8337 49.465 28.7331 49.7019 28.6316C49.8307 28.5766 50.0251 28.4955 50.134 28.4516C50.2429 28.4077 50.4374 28.3267 50.5661 28.2716C50.6948 28.2165 50.8852 28.1372 50.9892 28.0955L51.3672 27.9436C51.4712 27.9018 51.6616 27.8226 51.7903 27.7675C51.919 27.7124 52.1135 27.6314 52.2224 27.5875C52.3313 27.5435 52.5257 27.4625 52.6545 27.4074C52.8849 27.3088 53.11 27.2165 53.4646 27.0752C53.5636 27.0358 53.75 26.9584 53.8787 26.9033C54.0074 26.8482 54.1937 26.7709 54.2928 26.7314C54.7514 26.5487 54.8835 26.4931 55.0849 26.3978C55.2037 26.3416 55.313 26.2946 55.3276 26.2934C55.3423 26.2922 56.6021 27.5388 58.1271 29.0636ZM37.5934 26.7863C37.6688 26.9607 37.7716 27.2112 37.9 27.5334C37.9395 27.6325 38.0168 27.8188 38.0719 27.9475C38.127 28.0762 38.208 28.2707 38.2519 28.3796C38.3233 28.5566 38.3929 28.7218 38.591 29.1845C38.6237 29.2609 38.6418 29.35 38.6312 29.3826C38.6108 29.4453 38.2214 29.7118 38.1502 29.7118C38.1012 29.7118 36.0555 27.6751 36.0555 27.6262C36.0555 27.5137 36.7125 27.0129 37.2257 26.7342C37.5032 26.5836 37.5059 26.584 37.5934 26.7863ZM43.0872 26.6919C43.2738 26.7864 43.7723 27.0851 43.7969 27.1173C43.8068 27.1302 43.8716 27.18 43.9409 27.228C44.09 27.3311 44.337 27.5794 44.337 27.6262C44.337 27.6751 42.2914 29.7118 42.2424 29.7118C42.1709 29.7118 41.7817 29.4452 41.7612 29.3823C41.7506 29.3495 41.7813 29.2361 41.8296 29.1302C41.912 28.949 41.9787 28.7886 42.1487 28.3616C42.1882 28.2626 42.2656 28.0762 42.3206 27.9475C42.3757 27.8188 42.4567 27.6244 42.5007 27.5154C42.5446 27.4065 42.6261 27.2121 42.6818 27.0834C42.7374 26.9546 42.8024 26.7967 42.8262 26.7323C42.8773 26.594 42.8898 26.5921 43.0872 26.6919ZM36.6492 29.1182C37.2146 29.6836 37.6755 30.1729 37.6752 30.2074C37.6746 30.2642 37.6219 30.3413 37.4047 30.6028L37.3316 30.6908L37.1707 30.6197C36.8799 30.4911 36.5089 30.3331 36.3166 30.2559L35.9385 30.104C35.8345 30.0622 35.6442 29.983 35.5154 29.9279C35.244 29.8117 34.9699 29.7002 34.8069 29.6397C34.5495 29.5441 34.5509 29.5166 34.8358 29.0423C34.9775 28.8066 35.1041 28.6055 35.1171 28.5956C35.1302 28.5857 35.1799 28.5209 35.2275 28.4516C35.3223 28.3139 35.5486 28.0915 35.594 28.0915C35.6097 28.0915 36.0845 28.5535 36.6492 29.1182ZM44.993 28.2458C45.1483 28.3925 45.4408 28.8164 45.6966 29.2653C45.8293 29.4982 45.8123 29.5556 45.5856 29.6397C45.4226 29.7002 45.1485 29.8117 44.8771 29.9279C44.7484 29.983 44.5539 30.064 44.445 30.1079C44.3361 30.1518 44.1417 30.2328 44.0129 30.2879C43.8842 30.343 43.6898 30.424 43.5809 30.4679C43.4719 30.5117 43.3104 30.5798 43.2218 30.6192L43.0609 30.6908L42.9878 30.6028C42.7707 30.3413 42.718 30.2642 42.7174 30.2074C42.7167 30.1469 44.7396 28.0915 44.7998 28.0915C44.8162 28.0915 44.9031 28.161 44.993 28.2458ZM46.1668 30.4231C46.3144 30.9158 46.3401 31.038 46.3881 31.4761C46.4044 31.6247 46.4235 31.7786 46.4306 31.8182C46.4432 31.8893 46.4236 31.8902 44.9131 31.8902H43.3828L43.3569 31.7282C43.3426 31.6391 43.3207 31.506 43.3081 31.4324C43.2861 31.3038 43.2906 31.2963 43.4241 31.2391C44.0226 30.9829 44.1502 30.9299 44.607 30.7479C44.7061 30.7084 44.8924 30.6311 45.0211 30.576C45.1498 30.5209 45.3443 30.44 45.4532 30.3962C45.5621 30.3523 45.7322 30.2786 45.8313 30.2324L45.8458 30.2256C45.9546 30.1747 46.0119 30.1479 46.0512 30.1643C46.0948 30.1825 46.1162 30.254 46.1614 30.4049L46.1668 30.4231ZM34.5873 30.2481C34.7361 30.314 34.9401 30.3978 35.3174 30.5481C35.4164 30.5876 35.6028 30.6649 35.7315 30.72C35.8602 30.7751 36.0546 30.8561 36.1636 30.9C36.3405 30.9714 36.5059 31.041 36.9685 31.2391C37.1019 31.2963 37.1064 31.3038 37.0844 31.4324C37.0719 31.506 37.0499 31.6391 37.0356 31.7282L37.0097 31.8902L35.4954 31.8996L33.981 31.909L33.9963 31.5756C34.0048 31.3921 34.026 31.2148 34.0435 31.1815C34.0609 31.1481 34.0752 31.0763 34.0752 31.022C34.0752 30.9676 34.0903 30.8734 34.1087 30.8126C34.1272 30.7518 34.1625 30.6291 34.1872 30.54C34.2908 30.1654 34.3323 30.1352 34.5873 30.2481ZM31.7089 32.7904C31.7243 32.9092 31.7516 33.1279 31.7695 33.2765C31.7874 33.425 31.8188 33.6275 31.8393 33.7265C31.8598 33.8256 31.8922 33.9876 31.9114 34.0866C31.987 34.4768 32.0739 34.7584 32.3254 35.4288C32.4918 35.8723 33.2349 37.1846 33.3901 37.3092C33.4024 37.3191 33.4518 37.3839 33.4998 37.4532C33.5478 37.5225 33.6609 37.6521 33.7511 37.7412C33.8413 37.8304 33.9549 37.96 34.0034 38.0293C34.1149 38.1886 34.2043 38.2779 34.3632 38.389C34.4326 38.4374 34.546 38.5348 34.6153 38.6054C34.6846 38.676 34.798 38.773 34.8673 38.8209C34.9366 38.8688 35.0177 38.9344 35.0474 38.9667C35.2672 39.2053 36.6352 39.9691 37.1984 40.1675C37.2718 40.1934 37.3525 40.2219 37.4203 40.2458C37.476 40.2654 37.523 40.282 37.5498 40.2915C37.7809 40.3731 38.061 40.4524 38.2159 40.4802C38.305 40.4962 38.4509 40.5277 38.54 40.5503C38.6291 40.5728 38.7992 40.6085 38.918 40.6296C39.2046 40.6804 41.1946 40.6796 41.4745 40.6285C42.0324 40.5266 42.2445 40.4788 42.5367 40.3892C42.6456 40.3557 42.8481 40.2942 42.9868 40.2523C43.1254 40.2105 43.3146 40.1392 43.4072 40.0937C43.4998 40.0483 43.6414 39.9884 43.7219 39.9607C43.8024 39.933 43.9778 39.8459 44.1116 39.7672C44.2455 39.6885 44.5008 39.5387 44.6791 39.4342C44.8573 39.3297 45.0112 39.2334 45.0211 39.2201C45.031 39.2069 45.0958 39.1571 45.1651 39.1095C45.2345 39.0619 45.2993 39.0133 45.3092 39.0015C45.3191 38.9897 45.3839 38.9411 45.4532 38.8934C45.5225 38.8458 45.6035 38.781 45.6332 38.7494C45.6629 38.7178 45.7439 38.6524 45.8133 38.6041C45.9748 38.4913 46.346 38.1204 46.4606 37.9573C46.5093 37.888 46.6068 37.7746 46.6774 37.7052C46.748 37.6359 46.845 37.5225 46.8929 37.4532C46.9408 37.3839 46.9903 37.3191 47.0029 37.3092C47.1571 37.1877 47.8989 35.877 48.0673 35.4283C48.2157 35.0329 48.3823 34.5411 48.4121 34.4107C48.4302 34.3314 48.4617 34.2018 48.4821 34.1226C48.5261 33.9518 48.5764 33.6487 48.6223 33.2765C48.6406 33.1279 48.6682 32.9092 48.6837 32.7904L48.7118 32.5743H49.4139H50.116L50.1078 32.7724C50.0885 33.2395 49.9872 34.0895 49.9189 34.3567C49.8961 34.4458 49.8647 34.5916 49.8491 34.6807C49.8246 34.8203 49.544 35.6688 49.3633 36.1494C49.2093 36.559 48.5189 37.7663 48.3707 37.8853C48.3583 37.8952 48.3093 37.96 48.2617 38.0293C48.2141 38.0986 48.1655 38.1634 48.1537 38.1733C48.1419 38.1832 48.093 38.248 48.0451 38.3174C47.9972 38.3867 47.8998 38.5001 47.8288 38.5694C47.6981 38.6969 47.5056 38.9592 47.5056 39.0097C47.5056 39.0248 49.2109 39.0413 51.2952 39.0463L55.0849 39.0555L55.0794 47.427C55.0757 53.0154 55.0612 55.9301 55.0357 56.1945C54.9807 56.7644 54.9334 57.1382 54.8876 57.3647C54.8656 57.4736 54.8334 57.6519 54.816 57.7608C54.7986 57.8697 54.7676 58.0236 54.7472 58.1028C54.7025 58.2763 54.6462 58.5046 54.6029 58.6879C54.5631 58.8565 54.4799 59.1295 54.3478 59.5251C54.2583 59.7932 54.1974 59.961 53.9657 60.5782C53.883 60.7987 53.1992 62.1496 53.0226 62.4416C52.7841 62.8358 52.1482 63.783 52.0797 63.8459C52.0474 63.8756 51.982 63.9566 51.9343 64.0259C51.8867 64.0952 51.8219 64.1762 51.7903 64.2059C51.7587 64.2356 51.6937 64.3166 51.6457 64.3859C51.5978 64.4553 51.5008 64.5687 51.4303 64.638C51.3597 64.7073 51.262 64.8207 51.2133 64.89C51.0988 65.053 50.4415 65.7103 50.278 65.8255C50.2087 65.8743 50.0791 65.9881 49.99 66.0782C49.9009 66.1684 49.7713 66.2815 49.7019 66.3296C49.6326 66.3776 49.5516 66.4427 49.5219 66.4743C49.4922 66.5059 49.4112 66.5707 49.3419 66.6183C49.2726 66.6659 49.2078 66.7146 49.1979 66.7264C49.188 66.7382 49.1231 66.7868 49.0538 66.8344C48.9845 66.882 48.9197 66.9312 48.9098 66.9439C48.8817 66.9797 48.0579 67.525 47.7576 67.7066C47.4621 67.8853 46.1106 68.5689 45.8942 68.6491C45.82 68.6766 45.6701 68.7352 45.5612 68.7792C45.2274 68.914 44.2794 69.2223 43.9949 69.2886C43.9157 69.307 43.7861 69.3386 43.7069 69.3587C43.6277 69.3789 43.4818 69.4111 43.3828 69.4303C43.2838 69.4495 43.1218 69.4816 43.0228 69.5017C42.093 69.6901 41.353 69.7568 40.1963 69.7565C39.0988 69.7563 38.3478 69.7007 37.7298 69.5741C37.6308 69.5538 37.4607 69.5199 37.3518 69.4989C36.9805 69.427 36.8297 69.3954 36.6766 69.3571C36.5925 69.336 36.4629 69.3045 36.3886 69.2869C36.1072 69.2204 35.1561 68.9103 34.8313 68.7792C34.7224 68.7352 34.5725 68.6766 34.4983 68.6491C34.282 68.5689 32.9304 67.8853 32.6349 67.7066C32.3346 67.525 31.5109 66.9797 31.4827 66.9439C31.4728 66.9312 31.408 66.882 31.3387 66.8344C31.2694 66.7868 31.2046 66.7382 31.1947 66.7264C31.1848 66.7146 31.12 66.6659 31.0507 66.6183C30.9813 66.5707 30.9165 66.5221 30.9066 66.5103C30.8967 66.4985 30.8319 66.4495 30.7626 66.4013C30.6933 66.3532 30.5313 66.2078 30.4025 66.0782C30.2738 65.9487 30.1118 65.8026 30.0425 65.7537C29.8793 65.6385 29.3654 65.1245 29.251 64.9621C29.2022 64.8927 29.0885 64.7631 28.9983 64.674C28.9081 64.5849 28.795 64.4553 28.747 64.3859C28.6989 64.3166 28.6338 64.2356 28.6022 64.2059C28.5706 64.1762 28.5058 64.0952 28.4582 64.0259C28.4106 63.9566 28.362 63.8918 28.3502 63.8819C28.3384 63.872 28.2898 63.8071 28.2422 63.7378C28.1946 63.6685 28.1454 63.6037 28.1328 63.5938C27.9291 63.4327 26.7093 61.2884 26.4995 60.7225C26.4719 60.6481 26.4133 60.4982 26.3693 60.3892C26.2938 60.2027 25.9438 59.1671 25.8095 58.733C25.7759 58.624 25.7352 58.462 25.7193 58.3729C25.7033 58.2838 25.672 58.1379 25.6497 58.0488C25.5301 57.5704 25.4383 56.967 25.3569 56.1225C25.3314 55.8582 25.3168 52.9539 25.3132 47.3909L25.3076 39.0555L29.0973 39.0463C31.1816 39.0413 32.887 39.0248 32.887 39.0097C32.887 38.9592 32.6945 38.6969 32.5638 38.5694C32.4927 38.5001 32.3954 38.3867 32.3475 38.3174C32.2995 38.248 32.2507 38.1832 32.2389 38.1733C32.2271 38.1634 32.1781 38.0986 32.1301 38.0293C32.0821 37.96 32.018 37.8762 31.9878 37.8431C31.684 37.5104 31.0489 36.2628 30.7905 35.4909C30.7109 35.2532 30.6316 34.998 30.6142 34.9238C30.5968 34.8495 30.5654 34.7198 30.5443 34.6357C30.45 34.2586 30.3837 33.8354 30.3315 33.2765C30.3139 33.0883 30.2885 32.8737 30.2751 32.7996C30.2741 32.7941 30.2731 32.7887 30.2722 32.7835C30.2582 32.7069 30.2489 32.6559 30.2689 32.6222C30.3088 32.5549 30.4659 32.5571 30.9373 32.5638L30.9868 32.5645L31.6808 32.5743L31.7089 32.7904ZM46.3962 32.8894C46.3877 33.0726 46.3665 33.2497 46.3491 33.2831C46.3316 33.3165 46.3174 33.3882 46.3174 33.4426C46.3174 33.5471 46.3163 33.551 46.1331 34.1406C45.9658 34.679 45.3909 35.7909 45.2023 35.9409C45.1899 35.9508 45.1405 36.0156 45.0926 36.085C45.0446 36.1543 44.9477 36.2677 44.8771 36.337C44.8065 36.4063 44.7093 36.5197 44.6611 36.589C44.5521 36.7457 44.5294 36.7684 44.373 36.8769C44.3037 36.925 44.2065 37.0066 44.157 37.0583C43.7779 37.454 42.5601 38.0811 41.8436 38.2496C41.7693 38.267 41.6397 38.299 41.5555 38.3205C40.9328 38.4798 39.4638 38.4789 38.828 38.3189C38.7389 38.2964 38.6093 38.2644 38.54 38.2477C38.2861 38.1866 37.969 38.0688 37.7184 37.9426C37.5772 37.8714 37.4389 37.8133 37.4113 37.8133C37.3836 37.8133 37.2381 37.733 37.0878 37.6349C36.9375 37.5368 36.7668 37.4319 36.7085 37.4017C36.6502 37.3715 36.5807 37.3257 36.554 37.2998C36.5274 37.274 36.4493 37.2131 36.3805 37.1647C36.2773 37.0921 35.9993 36.841 35.7747 36.6176C35.6001 36.444 35.375 36.1907 35.3007 36.0845C35.2524 36.0154 35.2027 35.9508 35.1902 35.9409C35.1234 35.8878 34.7825 35.3379 34.6381 35.0504C34.4576 34.6909 34.412 34.5779 34.2489 34.0866C34.0871 33.5991 34.0752 33.5526 34.0752 33.4066C34.0752 33.3324 34.061 33.2445 34.0436 33.2111C34.0263 33.1777 34.0047 33.0168 33.9956 32.8534L33.9791 32.5563H40.1953H46.4115L46.3962 32.8894ZM32.6941 42.0564C32.6402 42.1159 32.6348 42.2329 32.6434 43.1637L32.6529 44.2044L35.8395 44.2224L39.0261 44.2404L39.0352 50.1427C39.0436 55.5722 39.049 56.0503 39.1038 56.1108C39.1587 56.1715 39.2419 56.1765 40.1963 56.1765C41.1506 56.1765 41.2338 56.1715 41.2888 56.1108C41.3435 56.0503 41.349 55.5722 41.3574 50.1427L41.3665 44.2404L44.553 44.2224L47.7396 44.2044V43.1062V42.008L40.2469 41.9989C32.9987 41.9901 32.7523 41.992 32.6941 42.0564ZM32.6942 47.0251C32.6389 47.0862 32.6354 47.3534 32.6491 50.4367C32.6647 53.9663 32.6852 54.4434 32.8482 55.0873C32.8696 55.1715 32.9011 55.3011 32.9182 55.3754C32.952 55.5213 33.0828 55.8955 33.2107 56.2125C33.2546 56.3214 33.3135 56.4724 33.3415 56.548C33.4173 56.7528 34.0245 57.7697 34.1087 57.8328C34.1219 57.8427 34.1718 57.9075 34.2196 57.9768C34.2674 58.0461 34.3482 58.1433 34.3992 58.1929C34.4503 58.2424 34.5318 58.3396 34.5803 58.4089C34.6943 58.5716 35.0655 58.9427 35.2274 59.0557C35.2967 59.104 35.3777 59.1695 35.4074 59.201C35.4371 59.2326 35.5181 59.2974 35.5875 59.345C35.6568 59.3927 35.7216 59.4423 35.7315 59.4555C35.9164 59.7011 37.2282 60.3722 37.9819 60.6069C38.537 60.7798 38.5573 60.7853 38.6506 60.7859C38.6987 60.7861 38.8028 60.8089 38.882 60.8365L39.0261 60.8866L39.0441 63.9955L39.0621 67.1044H40.1963H41.3305L41.3485 63.9955L41.3665 60.8866L41.5105 60.8365C41.5897 60.8089 41.6939 60.7861 41.742 60.7859C41.8352 60.7853 41.8556 60.7798 42.4107 60.6069C43.1184 60.3865 44.2476 59.8332 44.5468 59.5601C44.5799 59.5299 44.6638 59.4657 44.7331 59.4175C44.8024 59.3693 44.8996 59.2881 44.9491 59.237C44.9986 59.186 45.0958 59.1045 45.1651 59.056C45.3283 58.9417 45.7707 58.499 45.8839 58.3369C45.9323 58.2676 45.9977 58.1866 46.0293 58.1569C46.0609 58.1271 46.1257 58.0461 46.1733 57.9768C46.2209 57.9075 46.2701 57.8427 46.2825 57.8328C46.5424 57.6261 47.3234 56.0151 47.4738 55.3754C47.4913 55.3011 47.523 55.1715 47.5443 55.0873C47.7073 54.4434 47.7278 53.9663 47.7435 50.4367C47.7572 47.3534 47.7536 47.0862 47.6984 47.0251C47.6067 46.9238 45.6047 46.9231 45.5131 47.0243C45.4592 47.0839 45.4527 47.4052 45.4408 50.616C45.4282 54.0244 45.4203 54.2857 45.3159 54.7182C45.1761 55.2979 44.5926 56.448 44.302 56.7166C44.2698 56.7463 44.2041 56.8273 44.1557 56.8966C44.0444 57.0564 43.8158 57.2855 43.6529 57.4008C43.5836 57.4498 43.4839 57.5306 43.4314 57.5804C43.3281 57.6781 42.7095 58.0551 42.3991 58.2094C41.7773 58.5185 41.0393 58.6681 40.1243 58.6704C39.6032 58.6717 39.4615 58.6563 39.0441 58.5535C38.955 58.5316 38.8253 58.5 38.756 58.4833C38.1738 58.3431 37.1951 57.8342 36.8837 57.5097C36.8342 57.4581 36.737 57.3764 36.6676 57.3281C36.5085 57.2172 36.4191 57.1278 36.3082 56.9686C36.2599 56.8993 36.1771 56.8015 36.1243 56.7512C35.8667 56.5061 35.1568 55.1947 35.1548 54.9603C35.1546 54.9262 35.1276 54.8254 35.095 54.7362C34.9743 54.407 34.9647 54.1298 34.9517 50.616C34.9398 47.4052 34.9333 47.0839 34.8794 47.0243C34.7878 46.9231 32.7858 46.9238 32.6942 47.0251ZM31.5547 38.3534H26.8739H25.2896L20.5018 33.5648C19.9863 33.0499 19.5646 32.6123 19.5646 32.5923C19.5646 32.5681 21.2292 32.5591 24.5785 32.5652L29.6644 32.5743C29.7544 35.2208 30.4746 36.7331 31.5547 38.3534ZM56.2704 37.174C57.9871 35.4672 60.8999 32.5711 60.8999 32.5563C60.8999 32.4982 50.8203 32.4712 50.8007 32.5293C50.5943 35.0726 50.1407 36.3914 48.8378 38.3534H55.0849C55.2182 38.2202 55.6715 37.7695 56.2704 37.174Z" fill="url(#paint0_linear_8_207)"/>
</g>
</g>
<defs>
<filter id="filter0_d_8_207" x="4" y="-4" width="72.4285" height="88" filterUnits="userSpaceOnUse" color-interpolation-filters="sRGB">
<feFlood flood-opacity="0" result="BackgroundImageFix"/>
<feColorMatrix in="SourceAlpha" type="matrix" values="0 0 0 0 0 0 0 0 0 0 0 0 0 0 0 0 0 0 127 0" result="hardAlpha"/>
<feOffset/>
<feGaussianBlur stdDeviation="6"/>
<feComposite in2="hardAlpha" operator="out"/>
<feColorMatrix type="matrix" values="0 0 0 0 1 0 0 0 0 1 0 0 0 0 1 0 0 0 0.55 0"/>
<feBlend mode="difference" in2="BackgroundImageFix" result="effect1_dropShadow_8_207"/>
<feBlend mode="normal" in="SourceGraphic" in2="effect1_dropShadow_8_207" result="shape"/>
</filter>
<linearGradient id="paint0_linear_8_207" x1="40.2143" y1="8" x2="40.2143" y2="72" gradientUnits="userSpaceOnUse">
<stop stop-color="#F7CC7F"/>
<stop offset="0.25" stop-color="#F9EACF"/>
<stop offset="0.365" stop-color="#F4D191"/>
<stop offset="0.565" stop-color="#D9B169"/>
<stop offset="0.715" stop-color="#DBBB82"/>
<stop offset="0.865" stop-color="#F5E5C9"/>
<stop offset="1" stop-color="#B6904C"/>
</linearGradient>
<clipPath id="clip0_8_207">
<rect width="80" height="80" fill="white"/>
</clipPath>
</defs>
</svg>
